# xmcd CD database file
#
# Track frame offsets:
#	150
#	13059
#	25846
#	39773
#	51897
#	64945
#	77223
#	90227
#	113411
#	133655
#	159832
#	185800
#	204373
#	222966
#	240453
#	258689
#	271396
#	283685
#	294884
#	306438
#
# Disc length: 4249 seconds
#
# Revision: 0
# Processed by: cddbd v1.5.2PL0 Copyright (c) Steve Scherf et al.
# Submitted via: CDex 1.51
#
DISCID=16109714
DTITLE=Stevie Wonder - Steve Winwood - Rod  Stewart - Diana Ross - 4 Grandes mitos
DYEAR=2000
DGENRE=Jazz
TTITLE0=My Cherie Amour - 
TTITLE1=For Once In My Life
TTITLE2=Yester-me, Yester-you, Yesterday
TTITLE3=Signed, Sealed, Delivered, I'm Yours
TTITLE4=Uptight (Everything's Alright)
TTITLE5=Keep on running
TTITLE6=Gimme some lovin'
TTITLE7=While you see a chance
TTITLE8=Hold on
TTITLE9=Wake me up on the Judgement Day
TTITLE10=Maggie May
TTITLE11=Lady Day
TTITLE12=Reason To Believe
TTITLE13=I'd Rather Go Blind
TTITLE14=Gasoline Alley
TTITLE15=Stop! In The Name Of Love
TTITLE16=You Can't Hurry Love
TTITLE17=Where Did Our Love Go
TTITLE18=Baby Love
TTITLE19=You Keep Me Hangin'On
EXTD=YEAR: 2000
EXTT0=
EXTT1=
EXTT2=
EXTT3=
EXTT4=
EXTT5=
EXTT6=
EXTT7=
EXTT8=
EXTT9=
EXTT10=
EXTT11=
EXTT12=
EXTT13=
EXTT14=
EXTT15=
EXTT16=
EXTT17=
EXTT18=
EXTT19=
PLAYORDER=
